<?xml version="1.0" encoding="UTF-8"?>
<svg version="1.1" xmlns="http://www.w3.org/2000/svg" width="1400" height="1400">
<path d="M0 0 C462 0 924 0 1400 0 C1400 462 1400 924 1400 1400 C938 1400 476 1400 0 1400 C0 938 0 476 0 0 Z " fill="#000000" transform="translate(0,0)"/>
<path d="M0 0 C38.47220825 0 38.47220825 0 50.4375 1.125 C51.50584076 1.22003311 51.50584076 1.22003311 52.59576416 1.31698608 C81.27944732 3.88081908 109.82584545 8.25162722 137.96777344 14.34472656 C140.68623047 14.93219345 143.40792564 15.49799018 146.1328125 16.0546875 C156.29879082 18.16878925 166.1716584 21.03061962 176.08251953 24.11254883 C178.99535792 24.99858795 181.9175506 25.84891262 184.84214783 26.69519043 C247.7996017 44.96681623 308.68472834 73.26245475 363 110 C363.70576172 110.47453613 364.41152344 110.94907227 365.13867188 111.43798828 C381.41557115 122.40998191 397.14535092 134.04586488 412.26318359 146.56738281 C414.76234405 148.62882132 417.29045371 150.65416707 419.8125 152.6875 C424.49997804 156.52334914 428.98169377 160.5548829 433.4375 164.65625 C435.65684276 166.68613667 437.90672034 168.66495498 440.1875 170.625 C443.63300895 173.61438251 446.82399348 176.80583122 450.0234375 180.0546875 C451.8325149 181.83516288 453.68881949 183.48542586 455.625 185.125 C464.01317292 192.35045588 471.96995828 200.37910678 479.11328125 208.8359375 C480.68022456 210.63321823 482.27886297 212.3710222 483.91796875 214.1015625 C490.46894228 221.02028253 496.58540264 228.08612942 502.390625 235.640625 C504.8187409 238.79537706 507.36137233 241.83943554 509.9375 244.875 C567.30779691 313.35796859 608.14019071 398.90924507 631 485 C631.39711182 486.46928955 631.39711182 486.46928955 631.80224609 487.96826172 C646.30674047 541.92204503 652 596.12777808 652 652 C542.11 652 432.22 652 319 652 C318.67 643.75 318.34 635.5 318 627 C317.65394584 622.74914547 317.29534363 618.59105732 316.75 614.375 C316.62214111 613.35615723 316.49428223 612.33731445 316.36254883 611.28759766 C314.90881275 600.37067173 312.5928459 589.69571967 310 579 C309.77973145 578.06478516 309.55946289 577.12957031 309.33251953 576.16601562 C304.16910757 554.3724424 296.70510639 533.94132423 286.9375 513.8125 C286.60437805 513.12520813 286.2712561 512.43791626 285.92803955 511.72979736 C279.19477679 497.91072113 271.77792308 484.6434305 263 472 C262.41581299 471.15671143 262.41581299 471.15671143 261.81982422 470.29638672 C254.02327175 459.0828458 245.60368951 448.62357995 236.34765625 438.56640625 C234.29675902 436.32441044 232.29522467 434.05208971 230.3125 431.75 C224.67836454 425.28654086 218.50741139 419.5684225 212 414 C211.08734375 413.19820312 210.1746875 412.39640625 209.234375 411.5703125 C167.30440493 375.02844486 113.82876258 348.62093597 59 339 C58.07413086 338.83016602 57.14826172 338.66033203 56.19433594 338.48535156 C37.38928111 335.08135964 19.25069969 334.16670907 0 333 C0 223.11 0 113.22 0 0 Z " fill="#FEFEFE" transform="translate(513,645)"/>
<path d="M0 0 C74.25 0 148.5 0 225 0 C225 307.56 225 615.12 225 932 C150.75 932 76.5 932 0 932 C0 624.44 0 316.88 0 0 Z " fill="#FEFEFE" transform="translate(234,365)"/>
<path d="M0 0 C23.42027163 0 23.42027163 0 31.625 1.5 C32.60807129 1.67305664 33.59114258 1.84611328 34.60400391 2.02441406 C52.47589081 5.39774328 69.82796008 11.17416645 86.17626953 19.12109375 C87.77857795 19.89329058 89.40162534 20.62214079 91.02734375 21.34375 C105.74973695 28.11646384 119.9316894 38.21278699 132 49 C132.5146582 49.45584473 133.02931641 49.91168945 133.55957031 50.38134766 C170.91507418 83.58988727 192.97451963 128.8216374 200 178 C200 185.26 200 192.52 200 200 C134 200 68 200 0 200 C0 134 0 68 0 0 Z " fill="#FEFEFE" transform="translate(513,1097)"/>
<path d="M0 0 C3.58592537 1.52199335 5.8793792 3.63255749 8.61907959 6.37857056 C9.54172104 7.29846268 10.46436249 8.2183548 11.41496277 9.16612244 C12.43005519 10.18829263 13.44505136 11.21055842 14.45996094 12.23291016 C15.53399927 13.30751273 16.60847838 14.3816749 17.68336487 15.45542908 C20.5986874 18.3701776 23.50780072 21.29105311 26.41584682 24.21305895 C29.45653627 27.26624767 32.50288731 30.31377666 35.54864502 33.36190796 C41.31470672 39.13418678 47.07565104 44.91154509 52.83477902 50.69074094 C59.39186433 57.27017801 65.95462699 63.84393953 72.51787519 70.41722798 C86.01824844 83.93850849 99.51146743 97.46690799 113 111 C111.47800665 114.58592537 109.36744251 116.8793792 106.62142944 119.61907959 C105.70153732 120.54172104 104.7816452 121.46436249 103.83387756 122.41496277 C102.81170737 123.43005519 101.78944158 124.44505136 100.76708984 125.45996094 C99.69248727 126.53399927 98.6183251 127.60847838 97.54457092 128.68336487 C94.6298224 131.5986874 91.70894689 134.50780072 88.78694105 137.41584682 C85.73375233 140.45653627 82.68622334 143.50288731 79.63809204 146.54864502 C73.86581322 152.31470672 68.08845491 158.07565104 62.30925906 163.83477902 C55.72982199 170.39186433 49.15606047 176.95462699 42.58277202 183.51787519 C29.06149151 197.01824844 15.53309201 210.51146743 2 224 C-1.1849702 222.59368348 -3.31824878 220.92765675 -5.76800537 218.46577454 C-6.50238831 217.73269577 -7.23677124 216.999617 -7.9934082 216.24432373 C-9.18728149 215.03730804 -9.18728149 215.03730804 -10.40527344 213.8059082 C-11.25132141 212.95854599 -12.09736938 212.11118378 -12.96905518 211.23814392 C-15.28689202 208.91492835 -17.60025744 206.58736533 -19.91188335 204.25797296 C-22.3385879 201.81500636 -24.77138926 199.37812791 -27.20367432 196.9407196 C-31.8160583 192.31695551 -36.42374928 187.68854714 -41.02940965 183.05808657 C-49.25920012 174.78403973 -57.49443915 166.51542576 -65.73507333 158.25217885 C-68.15159613 155.82866391 -70.56682788 153.40388867 -72.97917938 150.97622108 C-75.67632148 148.26232147 -78.37647348 145.55144776 -81.07714844 142.84106445 C-81.86496704 142.04650848 -82.65278564 141.25195251 -83.46447754 140.43331909 C-87.58225069 136.30717603 -91.77832085 132.3436868 -96.20625687 128.55116558 C-99.26058959 125.90988673 -102.17142546 123.13004432 -105.0625 120.3125 C-105.65482422 119.75755859 -106.24714844 119.20261719 -106.85742188 118.63085938 C-108.53515625 116.98828125 -108.53515625 116.98828125 -111 114 C-110.83822326 110.03924251 -108.39904805 108.02908543 -105.70372009 105.34295654 C-104.77678848 104.41190094 -103.84985687 103.48084534 -102.89483643 102.52157593 C-101.85963515 101.49699182 -100.82429098 100.47255207 -99.78881836 99.44824219 C-98.70429651 98.36456652 -97.62043477 97.28022989 -96.53718567 96.19528198 C-93.59360601 93.25084061 -90.64085975 90.31574871 -87.6864059 87.38222408 C-84.6007359 84.31529151 -81.52354383 81.23987694 -78.44544983 78.16534424 C-72.61492168 72.34414517 -66.77678747 66.53063648 -60.9358955 60.71983838 C-54.2868048 54.10426478 -47.64621757 47.48018371 -41.006338 40.85536718 C-27.34701227 27.22741003 -13.67702142 13.61019651 0 0 Z " fill="#FEFEFE" transform="translate(346,103)"/>
</svg>
