<svg xmlns="http://www.w3.org/2000/svg" xmlns:xlink="http://www.w3.org/1999/xlink" width="1400" zoomAndPan="magnify" viewBox="0 0 1050 1049.999947" height="1400" preserveAspectRatio="xMidYMid meet" version="1.0"><defs><g/><clipPath id="86d662320c"><rect x="0" width="861" y="0" height="116"/></clipPath></defs><g transform="matrix(1, 0, 0, 1, 95, 443)"><g clip-path="url(#86d662320c)"><g fill="#ffffff" fill-opacity="1"><g transform="translate(0.0959602, 85.99438)"><g><path d="M 66.765625 0 L 50.296875 0 L 50.296875 -32.921875 L 25.671875 -32.921875 L 25.671875 0 L 9.203125 0 L 9.203125 -82.296875 L 25.671875 -82.296875 L 25.671875 -49.375 L 50.296875 -49.375 L 50.296875 -82.296875 L 66.765625 -82.296875 Z M 66.765625 0 "/></g></g></g><g fill="#ffffff" fill-opacity="1"><g transform="translate(76.185859, 85.99438)"><g><path d="M 25.671875 0 L 9.203125 0 L 9.203125 -82.296875 L 25.671875 -82.296875 Z M 25.671875 0 "/></g></g></g><g fill="#ffffff" fill-opacity="1"><g transform="translate(111.180305, 85.99438)"><g><path d="M 9.203125 0 L 9.203125 -82.421875 L 41.78125 -82.421875 C 46.695312 -82.421875 50.914062 -81.34375 54.4375 -79.1875 C 57.96875 -77.039062 60.671875 -74.085938 62.546875 -70.328125 C 64.429688 -66.566406 65.300781 -62.269531 65.15625 -57.4375 C 65.070312 -54.363281 64.4375 -51.332031 63.25 -48.34375 C 62.0625 -45.351562 60.164062 -42.972656 57.5625 -41.203125 C 60.238281 -39.367188 62.328125 -36.972656 63.828125 -34.015625 C 65.328125 -31.054688 66.078125 -27.96875 66.078125 -24.75 C 66.078125 -20.144531 64.984375 -15.976562 62.796875 -12.25 C 60.609375 -8.53125 57.671875 -5.554688 53.984375 -3.328125 C 50.304688 -1.109375 46.238281 0 41.78125 0 Z M 25.78125 -65.953125 L 25.78125 -49.375 L 40.40625 -49.375 C 42.78125 -49.375 44.640625 -50.195312 45.984375 -51.84375 C 47.328125 -53.5 48 -55.441406 48 -57.671875 C 48 -59.972656 47.328125 -61.925781 45.984375 -63.53125 C 44.640625 -65.144531 42.78125 -65.953125 40.40625 -65.953125 Z M 25.78125 -32.921875 L 25.78125 -16.453125 L 40.40625 -16.453125 C 42.78125 -16.453125 44.753906 -17.257812 46.328125 -18.875 C 47.898438 -20.488281 48.6875 -22.445312 48.6875 -24.75 C 48.6875 -27.050781 47.898438 -28.988281 46.328125 -30.5625 C 44.753906 -32.132812 42.78125 -32.921875 40.40625 -32.921875 Z M 25.78125 -32.921875 "/></g></g></g><g fill="#ffffff" fill-opacity="1"><g transform="translate(182.665676, 85.99438)"><g><path d="M 48.8125 1.15625 C 41.75 1.15625 35.550781 -0.03125 30.21875 -2.40625 C 24.882812 -4.789062 20.453125 -8 16.921875 -12.03125 C 13.390625 -16.0625 10.738281 -20.609375 8.96875 -25.671875 C 7.207031 -30.734375 6.328125 -35.929688 6.328125 -41.265625 C 6.328125 -46.597656 7.207031 -51.796875 8.96875 -56.859375 C 10.738281 -61.929688 13.390625 -66.476562 16.921875 -70.5 C 20.453125 -74.53125 24.882812 -77.734375 30.21875 -80.109375 C 35.550781 -82.492188 41.75 -83.6875 48.8125 -83.6875 C 55.863281 -83.6875 62.054688 -82.492188 67.390625 -80.109375 C 72.722656 -77.734375 77.15625 -74.53125 80.6875 -70.5 C 84.21875 -66.476562 86.863281 -61.929688 88.625 -56.859375 C 90.394531 -51.796875 91.28125 -46.597656 91.28125 -41.265625 C 91.28125 -35.929688 90.394531 -30.734375 88.625 -25.671875 C 86.863281 -20.609375 84.21875 -16.0625 80.6875 -12.03125 C 77.15625 -8 72.722656 -4.789062 67.390625 -2.40625 C 62.054688 -0.03125 55.863281 1.15625 48.8125 1.15625 Z M 48.8125 -15.890625 C 53.488281 -15.890625 57.515625 -16.804688 60.890625 -18.640625 C 64.265625 -20.484375 66.945312 -22.921875 68.9375 -25.953125 C 70.9375 -28.984375 72.28125 -32.300781 72.96875 -35.90625 C 73.664062 -39.519531 73.664062 -43.128906 72.96875 -46.734375 C 72.28125 -50.335938 70.9375 -53.65625 68.9375 -56.6875 C 66.945312 -59.71875 64.265625 -62.15625 60.890625 -64 C 57.515625 -65.84375 53.488281 -66.765625 48.8125 -66.765625 C 44.125 -66.765625 40.09375 -65.84375 36.71875 -64 C 33.34375 -62.15625 30.65625 -59.71875 28.65625 -56.6875 C 26.664062 -53.65625 25.320312 -50.335938 24.625 -46.734375 C 23.9375 -43.128906 23.9375 -39.519531 24.625 -35.90625 C 25.320312 -32.300781 26.664062 -28.984375 28.65625 -25.953125 C 30.65625 -22.921875 33.34375 -20.484375 36.71875 -18.640625 C 40.09375 -16.804688 44.125 -15.890625 48.8125 -15.890625 Z M 48.8125 -15.890625 "/></g></g></g><g fill="#ffffff" fill-opacity="1"><g transform="translate(280.166672, 85.99438)"><g><path d="M 9.203125 0 L 9.203125 -82.421875 L 41.78125 -82.421875 C 46.695312 -82.421875 50.914062 -81.34375 54.4375 -79.1875 C 57.96875 -77.039062 60.671875 -74.085938 62.546875 -70.328125 C 64.429688 -66.566406 65.300781 -62.269531 65.15625 -57.4375 C 65.070312 -54.363281 64.4375 -51.332031 63.25 -48.34375 C 62.0625 -45.351562 60.164062 -42.972656 57.5625 -41.203125 C 60.238281 -39.367188 62.328125 -36.972656 63.828125 -34.015625 C 65.328125 -31.054688 66.078125 -27.96875 66.078125 -24.75 C 66.078125 -20.144531 64.984375 -15.976562 62.796875 -12.25 C 60.609375 -8.53125 57.671875 -5.554688 53.984375 -3.328125 C 50.304688 -1.109375 46.238281 0 41.78125 0 Z M 25.78125 -65.953125 L 25.78125 -49.375 L 40.40625 -49.375 C 42.78125 -49.375 44.640625 -50.195312 45.984375 -51.84375 C 47.328125 -53.5 48 -55.441406 48 -57.671875 C 48 -59.972656 47.328125 -61.925781 45.984375 -63.53125 C 44.640625 -65.144531 42.78125 -65.953125 40.40625 -65.953125 Z M 25.78125 -32.921875 L 25.78125 -16.453125 L 40.40625 -16.453125 C 42.78125 -16.453125 44.753906 -17.257812 46.328125 -18.875 C 47.898438 -20.488281 48.6875 -22.445312 48.6875 -24.75 C 48.6875 -27.050781 47.898438 -28.988281 46.328125 -30.5625 C 44.753906 -32.132812 42.78125 -32.921875 40.40625 -32.921875 Z M 25.78125 -32.921875 "/></g></g></g><g fill="#ffffff" fill-opacity="1"><g transform="translate(351.652029, 85.99438)"><g/></g></g><g fill="#ffffff" fill-opacity="1"><g transform="translate(384.344205, 85.99438)"><g><path d="M 5.40625 -5.296875 L 7.484375 -22.5625 C 10.628906 -20.332031 13.753906 -18.738281 16.859375 -17.78125 C 19.972656 -16.820312 22.796875 -16.265625 25.328125 -16.109375 C 27.859375 -15.960938 29.738281 -15.925781 30.96875 -16 C 33.414062 -16.15625 35.503906 -17.019531 37.234375 -18.59375 C 38.960938 -20.164062 39.710938 -22.0625 39.484375 -24.28125 C 39.328125 -26.664062 38.441406 -28.472656 36.828125 -29.703125 C 35.222656 -30.929688 33.269531 -31.925781 30.96875 -32.6875 C 26.664062 -34.300781 22.65625 -36.160156 18.9375 -38.265625 C 15.21875 -40.378906 12.222656 -43.007812 9.953125 -46.15625 C 7.691406 -49.300781 6.5625 -53.175781 6.5625 -57.78125 C 6.5625 -62.382812 7.539062 -66.546875 9.5 -70.265625 C 11.457031 -73.992188 14.195312 -76.96875 17.71875 -79.1875 C 21.25 -81.414062 25.28125 -82.644531 29.8125 -82.875 C 31.957031 -83.03125 34.582031 -82.953125 37.6875 -82.640625 C 40.800781 -82.335938 45.003906 -81.265625 50.296875 -79.421875 L 48.234375 -63.546875 C 43.703125 -65.378906 40.09375 -66.429688 37.40625 -66.703125 C 34.71875 -66.972656 32.722656 -67.070312 31.421875 -67 C 28.503906 -66.84375 26.375 -65.84375 25.03125 -64 C 23.6875 -62.15625 23.09375 -60.082031 23.25 -57.78125 C 23.476562 -55.476562 24.472656 -53.734375 26.234375 -52.546875 C 28.003906 -51.359375 30.078125 -50.34375 32.453125 -49.5 C 36.753906 -47.957031 40.707031 -46.054688 44.3125 -43.796875 C 47.925781 -41.535156 50.820312 -38.8125 53 -35.625 C 55.1875 -32.4375 56.28125 -28.65625 56.28125 -24.28125 C 56.28125 -19.757812 55.28125 -15.65625 53.28125 -11.96875 C 51.289062 -8.289062 48.4375 -5.335938 44.71875 -3.109375 C 41 -0.878906 36.566406 0.382812 31.421875 0.6875 C 29.890625 0.769531 27.800781 0.710938 25.15625 0.515625 C 22.507812 0.328125 19.492188 -0.207031 16.109375 -1.09375 C 12.734375 -1.976562 9.164062 -3.378906 5.40625 -5.296875 Z M 5.40625 -5.296875 "/></g></g></g><g fill="#ffffff" fill-opacity="1"><g transform="translate(445.239158, 85.99438)"><g><path d="M 39.25 0 L 22.796875 0 L 22.796875 -65.84375 L 2.296875 -65.84375 L 2.296875 -82.1875 L 59.734375 -82.1875 L 59.734375 -65.84375 L 39.25 -65.84375 Z M 39.25 0 "/></g></g></g><g fill="#ffffff" fill-opacity="1"><g transform="translate(508.206162, 85.99438)"><g><path d="M 68.265625 -28.65625 C 68.265625 -23.0625 67.1875 -18.265625 65.03125 -14.265625 C 62.882812 -10.273438 60.046875 -7.09375 56.515625 -4.71875 C 52.984375 -2.34375 49.109375 -0.753906 44.890625 0.046875 C 40.671875 0.859375 36.429688 0.859375 32.171875 0.046875 C 27.910156 -0.753906 24.015625 -2.34375 20.484375 -4.71875 C 16.953125 -7.09375 14.113281 -10.273438 11.96875 -14.265625 C 9.820312 -18.265625 8.75 -23.0625 8.75 -28.65625 L 8.75 -82.296875 L 25.203125 -82.296875 L 25.203125 -28.78125 C 25.203125 -25.320312 26.101562 -22.554688 27.90625 -20.484375 C 29.71875 -18.410156 31.945312 -17.03125 34.59375 -16.34375 C 37.238281 -15.65625 39.882812 -15.65625 42.53125 -16.34375 C 45.175781 -17.03125 47.398438 -18.410156 49.203125 -20.484375 C 51.015625 -22.554688 51.921875 -25.320312 51.921875 -28.78125 L 51.921875 -82.296875 L 68.265625 -82.296875 Z M 68.265625 -28.65625 "/></g></g></g><g fill="#ffffff" fill-opacity="1"><g transform="translate(585.447203, 85.99438)"><g><path d="M 33.734375 -82.296875 C 40.554688 -82.296875 46.535156 -81.144531 51.671875 -78.84375 C 56.816406 -76.539062 61.097656 -73.429688 64.515625 -69.515625 C 67.929688 -65.609375 70.503906 -61.195312 72.234375 -56.28125 C 73.960938 -51.375 74.828125 -46.328125 74.828125 -41.140625 C 74.828125 -35.960938 73.960938 -30.914062 72.234375 -26 C 70.503906 -21.09375 67.929688 -16.679688 64.515625 -12.765625 C 61.097656 -8.859375 56.816406 -5.753906 51.671875 -3.453125 C 46.535156 -1.148438 40.554688 0 33.734375 0 L 9.203125 0 L 9.203125 -82.296875 Z M 33.734375 -65.84375 L 25.671875 -65.84375 L 25.671875 -16.453125 L 33.734375 -16.453125 C 38.335938 -16.453125 42.269531 -17.332031 45.53125 -19.09375 C 48.789062 -20.863281 51.394531 -23.226562 53.34375 -26.1875 C 55.300781 -29.144531 56.609375 -32.382812 57.265625 -35.90625 C 57.921875 -39.4375 57.921875 -42.945312 57.265625 -46.4375 C 56.609375 -49.9375 55.300781 -53.160156 53.34375 -56.109375 C 51.394531 -59.066406 48.789062 -61.425781 45.53125 -63.1875 C 42.269531 -64.957031 38.335938 -65.84375 33.734375 -65.84375 Z M 33.734375 -65.84375 "/></g></g></g><g fill="#ffffff" fill-opacity="1"><g transform="translate(666.486967, 85.99438)"><g><path d="M 25.671875 0 L 9.203125 0 L 9.203125 -82.296875 L 25.671875 -82.296875 Z M 25.671875 0 "/></g></g></g><g fill="#ffffff" fill-opacity="1"><g transform="translate(701.481427, 85.99438)"><g><path d="M 48.8125 1.15625 C 41.75 1.15625 35.550781 -0.03125 30.21875 -2.40625 C 24.882812 -4.789062 20.453125 -8 16.921875 -12.03125 C 13.390625 -16.0625 10.738281 -20.609375 8.96875 -25.671875 C 7.207031 -30.734375 6.328125 -35.929688 6.328125 -41.265625 C 6.328125 -46.597656 7.207031 -51.796875 8.96875 -56.859375 C 10.738281 -61.929688 13.390625 -66.476562 16.921875 -70.5 C 20.453125 -74.53125 24.882812 -77.734375 30.21875 -80.109375 C 35.550781 -82.492188 41.75 -83.6875 48.8125 -83.6875 C 55.863281 -83.6875 62.054688 -82.492188 67.390625 -80.109375 C 72.722656 -77.734375 77.15625 -74.53125 80.6875 -70.5 C 84.21875 -66.476562 86.863281 -61.929688 88.625 -56.859375 C 90.394531 -51.796875 91.28125 -46.597656 91.28125 -41.265625 C 91.28125 -35.929688 90.394531 -30.734375 88.625 -25.671875 C 86.863281 -20.609375 84.21875 -16.0625 80.6875 -12.03125 C 77.15625 -8 72.722656 -4.789062 67.390625 -2.40625 C 62.054688 -0.03125 55.863281 1.15625 48.8125 1.15625 Z M 48.8125 -15.890625 C 53.488281 -15.890625 57.515625 -16.804688 60.890625 -18.640625 C 64.265625 -20.484375 66.945312 -22.921875 68.9375 -25.953125 C 70.9375 -28.984375 72.28125 -32.300781 72.96875 -35.90625 C 73.664062 -39.519531 73.664062 -43.128906 72.96875 -46.734375 C 72.28125 -50.335938 70.9375 -53.65625 68.9375 -56.6875 C 66.945312 -59.71875 64.265625 -62.15625 60.890625 -64 C 57.515625 -65.84375 53.488281 -66.765625 48.8125 -66.765625 C 44.125 -66.765625 40.09375 -65.84375 36.71875 -64 C 33.34375 -62.15625 30.65625 -59.71875 28.65625 -56.6875 C 26.664062 -53.65625 25.320312 -50.335938 24.625 -46.734375 C 23.9375 -43.128906 23.9375 -39.519531 24.625 -35.90625 C 25.320312 -32.300781 26.664062 -28.984375 28.65625 -25.953125 C 30.65625 -22.921875 33.34375 -20.484375 36.71875 -18.640625 C 40.09375 -16.804688 44.125 -15.890625 48.8125 -15.890625 Z M 48.8125 -15.890625 "/></g></g></g><g fill="#ffffff" fill-opacity="1"><g transform="translate(798.982395, 85.99438)"><g><path d="M 5.40625 -5.296875 L 7.484375 -22.5625 C 10.628906 -20.332031 13.753906 -18.738281 16.859375 -17.78125 C 19.972656 -16.820312 22.796875 -16.265625 25.328125 -16.109375 C 27.859375 -15.960938 29.738281 -15.925781 30.96875 -16 C 33.414062 -16.15625 35.503906 -17.019531 37.234375 -18.59375 C 38.960938 -20.164062 39.710938 -22.0625 39.484375 -24.28125 C 39.328125 -26.664062 38.441406 -28.472656 36.828125 -29.703125 C 35.222656 -30.929688 33.269531 -31.925781 30.96875 -32.6875 C 26.664062 -34.300781 22.65625 -36.160156 18.9375 -38.265625 C 15.21875 -40.378906 12.222656 -43.007812 9.953125 -46.15625 C 7.691406 -49.300781 6.5625 -53.175781 6.5625 -57.78125 C 6.5625 -62.382812 7.539062 -66.546875 9.5 -70.265625 C 11.457031 -73.992188 14.195312 -76.96875 17.71875 -79.1875 C 21.25 -81.414062 25.28125 -82.644531 29.8125 -82.875 C 31.957031 -83.03125 34.582031 -82.953125 37.6875 -82.640625 C 40.800781 -82.335938 45.003906 -81.265625 50.296875 -79.421875 L 48.234375 -63.546875 C 43.703125 -65.378906 40.09375 -66.429688 37.40625 -66.703125 C 34.71875 -66.972656 32.722656 -67.070312 31.421875 -67 C 28.503906 -66.84375 26.375 -65.84375 25.03125 -64 C 23.6875 -62.15625 23.09375 -60.082031 23.25 -57.78125 C 23.476562 -55.476562 24.472656 -53.734375 26.234375 -52.546875 C 28.003906 -51.359375 30.078125 -50.34375 32.453125 -49.5 C 36.753906 -47.957031 40.707031 -46.054688 44.3125 -43.796875 C 47.925781 -41.535156 50.820312 -38.8125 53 -35.625 C 55.1875 -32.4375 56.28125 -28.65625 56.28125 -24.28125 C 56.28125 -19.757812 55.28125 -15.65625 53.28125 -11.96875 C 51.289062 -8.289062 48.4375 -5.335938 44.71875 -3.109375 C 41 -0.878906 36.566406 0.382812 31.421875 0.6875 C 29.890625 0.769531 27.800781 0.710938 25.15625 0.515625 C 22.507812 0.328125 19.492188 -0.207031 16.109375 -1.09375 C 12.734375 -1.976562 9.164062 -3.378906 5.40625 -5.296875 Z M 5.40625 -5.296875 "/></g></g></g></g></g></svg>